<svg width="169" height="57" viewBox="0 0 169 57" fill="none" xmlns="http://www.w3.org/2000/svg">
<g id="2Leaf Logo">
<g id="2Leaf">
<path d="M88.0296 45.5633H69.7925V42.8495L77.0987 35.5053C79.3254 33.2534 80.793 31.6466 81.5014 30.6851C82.2099 29.7236 82.7413 28.7874 83.0955 27.8765C83.4498 26.9656 83.6269 25.9851 83.6269 24.935C83.6269 23.4548 83.1778 22.2845 82.2795 21.4242C81.3813 20.5513 80.1351 20.1148 78.541 20.1148C77.3897 20.1148 76.2954 20.3046 75.2579 20.6841C74.2332 21.0636 73.0882 21.7532 71.823 22.7526L70.153 20.6082C72.7087 18.4827 75.492 17.42 78.503 17.42C81.1092 17.42 83.1525 18.0905 84.6327 19.4316C86.1129 20.76 86.853 22.5502 86.853 24.8022C86.853 26.5607 86.3596 28.3003 85.3728 30.0209C84.386 31.7415 82.5389 33.9176 79.8314 36.5491L73.7587 42.489V42.6408H88.0296V45.5633Z" fill="#3A4657"/>
<path d="M93.9505 45.5633V17.8185H97.1767V42.6408H109.417V45.5633H93.9505Z" fill="#3A4657"/>
<path d="M122.454 45.9428C119.38 45.9428 116.951 45.0066 115.167 43.1342C113.396 41.2618 112.51 38.6619 112.51 35.3345C112.51 31.9819 113.333 29.3188 114.977 27.3451C116.635 25.3715 118.855 24.3847 121.638 24.3847C124.245 24.3847 126.307 25.245 127.825 26.9656C129.343 28.6735 130.102 30.9318 130.102 33.7404V35.7331H115.774C115.838 38.1748 116.451 40.0282 117.615 41.2934C118.792 42.5585 120.443 43.1911 122.568 43.1911C124.808 43.1911 127.022 42.723 129.21 41.7868V44.5954C128.097 45.0762 127.041 45.4178 126.041 45.6202C125.054 45.8353 123.859 45.9428 122.454 45.9428ZM121.6 27.0225C119.93 27.0225 118.596 27.5665 117.596 28.6545C116.609 29.7426 116.027 31.2481 115.85 33.1711H126.724C126.724 31.1848 126.281 29.6667 125.396 28.6166C124.51 27.5539 123.245 27.0225 121.6 27.0225Z" fill="#3A4657"/>
<path d="M148.282 45.5633L147.656 42.6028H147.504C146.467 43.9059 145.429 44.7915 144.392 45.2596C143.367 45.7151 142.083 45.9428 140.54 45.9428C138.477 45.9428 136.858 45.4115 135.681 44.3487C134.518 43.286 133.936 41.7742 133.936 39.8132C133.936 35.6129 137.295 33.4115 144.013 33.2091L147.542 33.0952V31.8048C147.542 30.1727 147.188 28.9708 146.48 28.1991C145.784 27.4147 144.664 27.0225 143.121 27.0225C141.387 27.0225 139.426 27.5539 137.238 28.6166L136.27 26.2065C137.295 25.6498 138.414 25.2133 139.629 24.8971C140.856 24.5808 142.083 24.4226 143.31 24.4226C145.79 24.4226 147.625 24.973 148.814 26.0736C150.016 27.1743 150.617 28.9392 150.617 31.3683V45.5633H148.282ZM141.166 43.3429C143.127 43.3429 144.664 42.8053 145.777 41.7299C146.903 40.6545 147.466 39.149 147.466 37.2133V35.3345L144.316 35.4674C141.811 35.5559 140.002 35.9481 138.889 36.644C137.788 37.3272 137.238 38.3962 137.238 39.8511C137.238 40.9898 137.579 41.8564 138.262 42.451C138.958 43.0456 139.926 43.3429 141.166 43.3429Z" fill="#3A4657"/>
<path d="M166.501 27.2123H161.206V45.5633H158.056V27.2123H154.336V25.789L158.056 24.6503V23.4927C158.056 18.3815 160.289 15.8259 164.755 15.8259C165.855 15.8259 167.146 16.0473 168.626 16.4901L167.81 19.0141C166.595 18.6219 165.558 18.4258 164.698 18.4258C163.508 18.4258 162.629 18.8243 162.06 19.6214C161.491 20.4058 161.206 21.6709 161.206 23.4168V24.7642H166.501V27.2123Z" fill="#3A4657"/>
</g>
<g id="2Leaf logo">
<path id="Vector" d="M56.898 0.982422H0V53.6604H56.898V0.982422Z" fill="#CBDB2B"/>
<path id="Vector_2" d="M56.9153 53.6201H0V56.9943H56.9153V53.6201Z" fill="#818789"/>
<path id="Vector_3" fill-rule="evenodd" clip-rule="evenodd" d="M53.6615 5.20569C54.1189 27.7803 42.4232 46.7857 22.9978 44.8806C16.0499 48.0137 9.27561 49.1728 2.55347 49.6089C3.23668 48.9892 3.91411 48.3695 4.59732 47.7497C9.26982 48.5588 15.3435 46.734 20.2708 44.6281C17.0747 39.0963 20.6645 31.8201 29.1699 26.5982C29.7895 26.1908 30.3916 25.7891 30.9822 25.3932C39.0187 18.6162 43.778 14.1575 48.0568 6.4796C48.2884 8.17815 48.4331 9.85948 48.4852 11.5121C50.2743 9.61273 51.9708 7.54693 53.6615 5.20569ZM39.2676 19.6089C42.3363 17.3136 45.0113 15.0584 47.501 12.5335C47.4952 11.4777 47.4546 10.3931 47.3794 9.26843C45.3934 12.809 42.6895 16.2577 39.2676 19.6089ZM21.8167 43.6525C29.9921 38.884 36.7085 32.9391 43.0716 25.9211C37.8607 32.8587 31.9433 38.993 24.2427 43.9108C36.8648 44.2034 51.166 34.0867 52.4282 8.56262C47.6399 15.1617 40.5819 21.2042 31.2601 26.6785C28.0467 28.7214 25.8118 30.506 24.2774 32.0955C19.466 37.0649 21.174 41.5179 21.8167 43.6525Z" fill="white"/>
</g>
</g>
</svg>
