<svg width="181" height="161" viewBox="0 0 181 161" fill="none" xmlns="http://www.w3.org/2000/svg">
<g clip-path="url(#clip0_22_1055)">
<path d="M46.798 12.193C47.1342 12.126 47.8864 11.7513 48.2089 10.7877C48.612 9.58323 48.0073 6.17051 50.426 6.572C52.8447 6.9735 51.6354 10.7877 54.4572 8.98098C57.279 7.17425 56.8759 3.76148 59.0931 1.75399C61.3102 -0.253487 66.7334 0.166995 65.1398 1.75405C61.7133 5.16677 64.1321 5.76901 66.1476 6.572C68.1632 7.375 68.3648 9.78397 66.1476 8.98098C63.9305 8.17799 59.4962 8.57949 60.1009 10.3862C60.7055 12.193 62.318 12.7952 60.1009 15.2042C59.3067 16.067 56.2712 13.9997 55.8681 15.2042C55.465 16.4087 56.0697 15.8064 54.4572 16.4087C53.1672 16.8905 52.4416 17.68 52.2401 18.0146" stroke="white"/>
<path d="M0 160.804V152.425H2.5914V129.435H0V121.057H21.8715V129.435H17.1033V152.425H21.7678V147.725H32.0815V160.804H0Z" fill="white"/>
<path d="M33.8603 160.804V152.425H36.4517V129.435H33.8603V121.057H68.8441V136.485H57.2347V129.435H50.9634V137.507H55.5243V143.331H50.9634V152.425H57.2347V144.353H68.8441V160.804H33.8603Z" fill="white"/>
<path d="M92.5756 121.057H109.886V129.435H107.813L98.5361 160.804H81.7439L72.4665 129.435H70.3932V121.057H90.2952V129.435H87.6004L91.1764 146.55H91.6948L95.2709 129.435H92.5756V121.057Z" fill="white"/>
<path d="M111.552 160.804V152.425H114.143V129.435H111.552V121.057H146.536V136.485H134.926V129.435H128.655V137.507H133.216V143.331H128.655V152.425H134.926V144.353H146.536V160.804H111.552Z" fill="white"/>
<path d="M148.499 160.804V152.425H151.091V129.435H148.499V121.057H170.371V129.435H165.603V152.425H170.267V147.725H180.581V160.804H148.499Z" fill="white"/>
<path d="M180.634 85.4733C180.634 92.7846 179.028 98.4425 175.816 102.447C172.604 106.406 167.391 108.385 160.177 108.385H136.788V111.878H125.337V86.0322H136.788V88.8262H163.737C165.274 88.8262 166.414 88.5002 167.159 87.8482C167.857 87.15 168.206 86.1254 168.206 84.7747C168.206 83.4245 167.857 82.4232 167.159 81.7711C166.414 81.0725 165.274 80.7232 163.737 80.7232H136.788V83.5177H125.337V59.558H136.788V63.0506H160.177C167.391 63.0506 172.604 64.9834 175.816 68.8486C179.028 72.7138 180.634 78.2552 180.634 85.4733Z" fill="#FF9900"/>
<path d="M168.206 57.0261V53.5335H136.788V57.0261H125.337V26.3608C125.337 20.3535 126.641 15.7665 129.247 12.5998C131.807 9.43319 135.973 7.84985 141.745 7.84985C147.516 7.84985 151.705 9.43319 154.312 12.5998C156.872 15.7665 158.152 20.3535 158.152 26.3608V33.9747H168.206V27.2688H179.656V57.0261H168.206ZM148.238 31.5997C148.238 28.8987 146.748 27.5483 143.769 27.5483H141.256C139.72 27.5483 138.603 27.8975 137.905 28.5961C137.16 29.248 136.788 30.2492 136.788 31.5997V33.9747H148.238V31.5997Z" fill="#FF9900"/>
<path fill-rule="evenodd" clip-rule="evenodd" d="M85.1377 110.57C112.474 111.006 134.99 89.2876 135.428 62.0609C135.866 34.8341 114.06 12.4089 86.7232 11.9728C59.3865 11.5367 36.8708 33.2549 36.4329 60.4818C35.9951 87.7085 57.801 110.134 85.1377 110.57ZM87.0634 15.0849C100.205 23.3746 121.139 44.4147 119.299 71.6334C118.85 71.9024 118.388 72.1778 117.912 72.4584C115.461 73.7472 112.95 74.7863 110.399 75.6022C110.323 72.0995 108.866 69.067 105.329 67.0162C100.035 63.9459 95.9767 62.5447 91.6831 61.062C83.1358 58.1106 73.6537 54.8364 51.6168 37.4269C57.6043 44.8997 74.8586 61.2495 95.9755 66.8672C102.944 68.7205 106.229 72.2545 107.179 76.5111C81.8515 82.7367 53.4691 68.6029 41.1253 59.5853C41.6433 59.988 42.1641 60.3951 42.6898 60.8058L42.6902 60.8062C52.5142 68.4824 63.9075 77.3848 86.982 80.7016C94.465 81.7772 101.38 80.9658 107.481 79.1381C107.613 87.3893 100.823 97.4215 95.389 103.356C101 97.4448 108.924 86.8906 110.22 78.2324C113.444 77.064 116.409 75.6275 119.074 74.0684C118.419 79.6874 116.781 85.5549 113.901 91.615C117.526 85.1851 119.636 79.0125 120.577 73.157C123.188 71.5161 125.477 69.7765 127.396 68.0946C127.768 69.7102 128.381 71.6819 129.388 74.0014C129.414 72.389 129.2 70.773 128.962 68.9791C128.874 68.3162 128.783 67.6292 128.7 66.9094C130.534 65.1773 131.948 63.5508 132.891 62.2143C132.507 62.6856 131.21 63.8255 128.57 65.6836C128.223 61.9902 128.2 57.4007 129.759 50.9049C128.733 54.1241 126.867 61.0644 126.835 63.0887C126.825 63.6689 126.806 64.875 127.114 66.6885C125.466 67.8043 123.419 69.1248 120.911 70.6577C124.282 38.9625 93.8084 17.1211 87.0634 15.0849ZM115.528 67.2169C115.803 67.2169 116.027 66.9945 116.027 66.7203C116.027 66.4456 115.803 66.2232 115.528 66.2232C115.252 66.2232 115.029 66.4456 115.029 66.7203C115.029 66.9945 115.252 67.2169 115.528 67.2169ZM105.052 74.6699C105.052 74.9441 104.829 75.1665 104.553 75.1665C104.278 75.1665 104.054 74.9441 104.054 74.6699C104.054 74.3953 104.278 74.1728 104.553 74.1728C104.829 74.1728 105.052 74.3953 105.052 74.6699ZM113.532 69.2043C113.808 69.2043 114.031 68.9819 114.031 68.7077C114.031 68.433 113.808 68.2106 113.532 68.2106C113.257 68.2106 113.033 68.433 113.033 68.7077C113.033 68.9819 113.257 69.2043 113.532 69.2043ZM113.034 65.7266C113.034 66.0008 112.811 66.2232 112.535 66.2232C112.259 66.2232 112.036 66.0008 112.036 65.7266C112.036 65.4523 112.259 65.2299 112.535 65.2299C112.811 65.2299 113.034 65.4523 113.034 65.7266ZM101.56 74.1728C101.836 74.1728 102.059 73.9504 102.059 73.6762C102.059 73.4016 101.836 73.1791 101.56 73.1791C101.285 73.1791 101.061 73.4016 101.061 73.6762C101.061 73.9504 101.285 74.1728 101.56 74.1728ZM103.057 72.6825C103.057 72.9567 102.833 73.1791 102.558 73.1791C102.282 73.1791 102.059 72.9567 102.059 72.6825C102.059 72.4079 102.282 72.1854 102.558 72.1854C102.833 72.1854 103.057 72.4079 103.057 72.6825ZM103.555 72.1854C103.831 72.1854 104.054 71.963 104.054 71.6888C104.054 71.4142 103.831 71.1917 103.555 71.1917C103.28 71.1917 103.056 71.4142 103.056 71.6888C103.056 71.963 103.28 72.1854 103.555 72.1854ZM102.059 71.6888C102.059 71.963 101.836 72.1854 101.56 72.1854C101.285 72.1854 101.061 71.963 101.061 71.6888C101.061 71.4142 101.285 71.1917 101.56 71.1917C101.836 71.1917 102.059 71.4142 102.059 71.6888ZM110.539 68.2106C110.815 68.2106 111.038 67.9882 111.038 67.714C111.038 67.4393 110.815 67.2169 110.539 67.2169C110.264 67.2169 110.04 67.4393 110.04 67.714C110.04 67.9882 110.264 68.2106 110.539 68.2106ZM115.029 63.7391C115.029 64.0138 114.806 64.2362 114.53 64.2362C114.255 64.2362 114.032 64.0138 114.032 63.7391C114.032 63.4649 114.255 63.2425 114.53 63.2425C114.806 63.2425 115.029 63.4649 115.029 63.7391ZM95.574 60.2614C95.8493 60.2614 96.0727 60.039 96.0727 59.7647C96.0727 59.4901 95.8493 59.2677 95.574 59.2677C95.2987 59.2677 95.0754 59.4901 95.0754 59.7647C95.0754 60.039 95.2987 60.2614 95.574 60.2614ZM117.024 69.7014C117.024 69.9756 116.801 70.198 116.525 70.198C116.25 70.198 116.026 69.9756 116.026 69.7014C116.026 69.4271 116.25 69.2043 116.525 69.2043C116.801 69.2043 117.024 69.4271 117.024 69.7014ZM116.525 68.2106C116.801 68.2106 117.024 67.9882 117.024 67.714C117.024 67.4393 116.801 67.2169 116.525 67.2169C116.25 67.2169 116.026 67.4393 116.026 67.714C116.026 67.9882 116.25 68.2106 116.525 68.2106ZM115.029 69.7014C115.029 69.9756 114.806 70.198 114.53 70.198C114.255 70.198 114.032 69.9756 114.032 69.7014C114.032 69.4271 114.255 69.2043 114.53 69.2043C114.806 69.2043 115.029 69.4271 115.029 69.7014ZM115.528 71.1917C115.803 71.1917 116.027 70.9693 116.027 70.6951C116.027 70.4204 115.803 70.198 115.528 70.198C115.252 70.198 115.029 70.4204 115.029 70.6951C115.029 70.9693 115.252 71.1917 115.528 71.1917ZM117.024 71.6888C117.024 71.963 116.801 72.1854 116.525 72.1854C116.25 72.1854 116.026 71.963 116.026 71.6888C116.026 71.4142 116.25 71.1917 116.525 71.1917C116.801 71.1917 117.024 71.4142 117.024 71.6888ZM115.528 78.1477C115.803 78.1477 116.027 77.9252 116.027 77.6506C116.027 77.3764 115.803 77.1539 115.528 77.1539C115.252 77.1539 115.029 77.3764 115.029 77.6506C115.029 77.9252 115.252 78.1477 115.528 78.1477ZM115.029 82.6191C115.029 82.8933 114.806 83.1158 114.53 83.1158C114.255 83.1158 114.032 82.8933 114.032 82.6191C114.032 82.3445 114.255 82.1221 114.53 82.1221C114.806 82.1221 115.029 82.3445 115.029 82.6191ZM116.525 79.1413C116.801 79.1413 117.024 78.9189 117.024 78.6443C117.024 78.3701 116.801 78.1477 116.525 78.1477C116.25 78.1477 116.026 78.3701 116.026 78.6443C116.026 78.9189 116.25 79.1413 116.525 79.1413ZM116.027 83.6128C116.027 83.887 115.803 84.1095 115.528 84.1095C115.252 84.1095 115.029 83.887 115.029 83.6128C115.029 83.3382 115.252 83.1158 115.528 83.1158C115.803 83.1158 116.027 83.3382 116.027 83.6128ZM115.528 80.1347C115.803 80.1347 116.027 79.9122 116.027 79.638C116.027 79.3638 115.803 79.1413 115.528 79.1413C115.252 79.1413 115.029 79.3638 115.029 79.638C115.029 79.9122 115.252 80.1347 115.528 80.1347ZM115.029 84.6065C115.029 84.8807 114.806 85.1032 114.53 85.1032C114.255 85.1032 114.032 84.8807 114.032 84.6065C114.032 84.3319 114.255 84.1095 114.53 84.1095C114.806 84.1095 115.029 84.3319 115.029 84.6065ZM114.53 81.1284C114.806 81.1284 115.029 80.9059 115.029 80.6317C115.029 80.3571 114.806 80.1347 114.53 80.1347C114.255 80.1347 114.032 80.3571 114.032 80.6317C114.032 80.9059 114.255 81.1284 114.53 81.1284ZM114.031 85.5998C114.031 85.8744 113.808 86.0969 113.532 86.0969C113.257 86.0969 113.033 85.8744 113.033 85.5998C113.033 85.3256 113.257 85.1032 113.532 85.1032C113.808 85.1032 114.031 85.3256 114.031 85.5998ZM112.535 88.0843C112.811 88.0843 113.034 87.8618 113.034 87.5872C113.034 87.313 112.811 87.0906 112.535 87.0906C112.259 87.0906 112.036 87.313 112.036 87.5872C112.036 87.8618 112.259 88.0843 112.535 88.0843ZM114.031 81.6254C114.031 81.8996 113.808 82.1221 113.532 82.1221C113.257 82.1221 113.033 81.8996 113.033 81.6254C113.033 81.3508 113.257 81.1284 113.532 81.1284C113.808 81.1284 114.031 81.3508 114.031 81.6254ZM115.528 82.1221C115.803 82.1221 116.027 81.8996 116.027 81.6254C116.027 81.3508 115.803 81.1284 115.528 81.1284C115.252 81.1284 115.029 81.3508 115.029 81.6254C115.029 81.8996 115.252 82.1221 115.528 82.1221ZM115.029 86.5939C115.029 86.8681 114.806 87.0906 114.53 87.0906C114.255 87.0906 114.032 86.8681 114.032 86.5939C114.032 86.3193 114.255 86.0969 114.53 86.0969C114.806 86.0969 115.029 86.3193 115.029 86.5939ZM113.532 89.078C113.808 89.078 114.031 88.8556 114.031 88.5809C114.031 88.3067 113.808 88.0843 113.532 88.0843C113.257 88.0843 113.033 88.3067 113.033 88.5809C113.033 88.8556 113.257 89.078 113.532 89.078ZM114.031 79.638C114.031 79.9122 113.808 80.1347 113.532 80.1347C113.257 80.1347 113.033 79.9122 113.033 79.638C113.033 79.3638 113.257 79.1413 113.532 79.1413C113.808 79.1413 114.031 79.3638 114.031 79.638ZM112.535 85.1032C112.811 85.1032 113.034 84.8807 113.034 84.6065C113.034 84.3319 112.811 84.1095 112.535 84.1095C112.259 84.1095 112.036 84.3319 112.036 84.6065C112.036 84.8807 112.259 85.1032 112.535 85.1032ZM118.022 76.6569C118.022 76.9311 117.799 77.1535 117.523 77.1535C117.248 77.1535 117.024 76.9311 117.024 76.6569C117.024 76.3823 117.248 76.1598 117.523 76.1598C117.799 76.1598 118.022 76.3823 118.022 76.6569ZM122.512 74.1728C122.787 74.1728 123.01 73.9504 123.01 73.6762C123.01 73.4016 122.787 73.1791 122.512 73.1791C122.236 73.1791 122.013 73.4016 122.013 73.6762C122.013 73.9504 122.236 74.1728 122.512 74.1728ZM122.013 76.6569C122.013 76.9311 121.789 77.1535 121.514 77.1535C121.238 77.1535 121.015 76.9311 121.015 76.6569C121.015 76.3823 121.238 76.1598 121.514 76.1598C121.789 76.1598 122.013 76.3823 122.013 76.6569ZM122.512 76.1602C122.787 76.1602 123.01 75.9378 123.01 75.6632C123.01 75.389 122.787 75.1665 122.512 75.1665C122.236 75.1665 122.013 75.389 122.013 75.6632C122.013 75.9378 122.236 76.1602 122.512 76.1602ZM122.013 78.6443C122.013 78.9189 121.789 79.1413 121.514 79.1413C121.238 79.1413 121.015 78.9189 121.015 78.6443C121.015 78.3701 121.238 78.1477 121.514 78.1477C121.789 78.1477 122.013 78.3701 122.013 78.6443ZM120.516 82.1221C120.792 82.1221 121.015 81.8996 121.015 81.6254C121.015 81.3508 120.792 81.1284 120.516 81.1284C120.241 81.1284 120.017 81.3508 120.017 81.6254C120.017 81.8996 120.241 82.1221 120.516 82.1221ZM122.013 74.6699C122.013 74.9441 121.789 75.1665 121.514 75.1665C121.238 75.1665 121.015 74.9441 121.015 74.6699C121.015 74.3953 121.238 74.1728 121.514 74.1728C121.789 74.1728 122.013 74.3953 122.013 74.6699ZM120.516 78.1477C120.792 78.1477 121.015 77.9252 121.015 77.6506C121.015 77.3764 120.792 77.1539 120.516 77.1539C120.241 77.1539 120.017 77.3764 120.017 77.6506C120.017 77.9252 120.241 78.1477 120.516 78.1477ZM124.008 74.6699C124.008 74.9441 123.784 75.1665 123.509 75.1665C123.233 75.1665 123.01 74.9441 123.01 74.6699C123.01 74.3953 123.233 74.1728 123.509 74.1728C123.784 74.1728 124.008 74.3953 124.008 74.6699ZM122.512 78.1477C122.787 78.1477 123.01 77.9252 123.01 77.6506C123.01 77.3764 122.787 77.1539 122.512 77.1539C122.236 77.1539 122.013 77.3764 122.013 77.6506C122.013 77.9252 122.236 78.1477 122.512 78.1477ZM122.013 80.6317C122.013 80.9059 121.789 81.1284 121.514 81.1284C121.238 81.1284 121.015 80.9059 121.015 80.6317C121.015 80.3571 121.238 80.1347 121.514 80.1347C121.789 80.1347 122.013 80.3571 122.013 80.6317ZM124.507 74.1728C124.782 74.1728 125.006 73.9504 125.006 73.6762C125.006 73.4016 124.782 73.1791 124.507 73.1791C124.231 73.1791 124.008 73.4016 124.008 73.6762C124.008 73.9504 124.231 74.1728 124.507 74.1728ZM124.008 72.6825C124.008 72.9567 123.784 73.1791 123.509 73.1791C123.233 73.1791 123.01 72.9567 123.01 72.6825C123.01 72.4079 123.233 72.1854 123.509 72.1854C123.784 72.1854 124.008 72.4079 124.008 72.6825ZM125.505 75.1665C125.78 75.1665 126.004 74.9441 126.004 74.6699C126.004 74.3953 125.78 74.1728 125.505 74.1728C125.229 74.1728 125.006 74.3953 125.006 74.6699C125.006 74.9441 125.229 75.1665 125.505 75.1665ZM125.006 75.6632C125.006 75.9378 124.782 76.1602 124.507 76.1602C124.231 76.1602 124.008 75.9378 124.008 75.6632C124.008 75.389 124.231 75.1665 124.507 75.1665C124.782 75.1665 125.006 75.389 125.006 75.6632ZM124.507 78.1477C124.782 78.1477 125.006 77.9252 125.006 77.6506C125.006 77.3764 124.782 77.1539 124.507 77.1539C124.231 77.1539 124.008 77.3764 124.008 77.6506C124.008 77.9252 124.231 78.1477 124.507 78.1477ZM121.015 79.638C121.015 79.9122 120.792 80.1347 120.516 80.1347C120.241 80.1347 120.017 79.9122 120.017 79.638C120.017 79.3638 120.241 79.1413 120.516 79.1413C120.792 79.1413 121.015 79.3638 121.015 79.638ZM125.505 73.1791C125.78 73.1791 126.004 72.9567 126.004 72.6825C126.004 72.4079 125.78 72.1854 125.505 72.1854C125.229 72.1854 125.006 72.4079 125.006 72.6825C125.006 72.9567 125.229 73.1791 125.505 73.1791ZM126.004 70.6951C126.004 70.9693 125.78 71.1917 125.505 71.1917C125.229 71.1917 125.006 70.9693 125.006 70.6951C125.006 70.4204 125.229 70.198 125.505 70.198C125.78 70.198 126.004 70.4204 126.004 70.6951ZM124.507 72.1854C124.782 72.1854 125.006 71.963 125.006 71.6888C125.006 71.4142 124.782 71.1917 124.507 71.1917C124.231 71.1917 124.008 71.4142 124.008 71.6888C124.008 71.963 124.231 72.1854 124.507 72.1854ZM127.998 72.6825C127.998 72.9567 127.775 73.1791 127.5 73.1791C127.224 73.1791 127.001 72.9567 127.001 72.6825C127.001 72.4079 127.224 72.1854 127.5 72.1854C127.775 72.1854 127.998 72.4079 127.998 72.6825ZM114.53 79.1413C114.806 79.1413 115.029 78.9189 115.029 78.6443C115.029 78.3701 114.806 78.1477 114.53 78.1477C114.255 78.1477 114.032 78.3701 114.032 78.6443C114.032 78.9189 114.255 79.1413 114.53 79.1413ZM114.031 83.6128C114.031 83.887 113.808 84.1095 113.532 84.1095C113.257 84.1095 113.033 83.887 113.033 83.6128C113.033 83.3382 113.257 83.1158 113.532 83.1158C113.808 83.1158 114.031 83.3382 114.031 83.6128ZM113.532 78.1477C113.808 78.1477 114.031 77.9252 114.031 77.6506C114.031 77.3764 113.808 77.1539 113.532 77.1539C113.257 77.1539 113.033 77.3764 113.033 77.6506C113.033 77.9252 113.257 78.1477 113.532 78.1477ZM113.034 78.6443C113.034 78.9189 112.811 79.1413 112.535 79.1413C112.259 79.1413 112.036 78.9189 112.036 78.6443C112.036 78.3701 112.259 78.1477 112.535 78.1477C112.811 78.1477 113.034 78.3701 113.034 78.6443ZM112.535 70.198C112.811 70.198 113.034 69.9756 113.034 69.7014C113.034 69.4271 112.811 69.2043 112.535 69.2043C112.259 69.2043 112.036 69.4271 112.036 69.7014C112.036 69.9756 112.259 70.198 112.535 70.198ZM114.031 70.6951C114.031 70.9693 113.808 71.1917 113.532 71.1917C113.257 71.1917 113.033 70.9693 113.033 70.6951C113.033 70.4204 113.257 70.198 113.532 70.198C113.808 70.198 114.031 70.4204 114.031 70.6951ZM114.53 72.1854C114.806 72.1854 115.029 71.963 115.029 71.6888C115.029 71.4142 114.806 71.1917 114.53 71.1917C114.255 71.1917 114.032 71.4142 114.032 71.6888C114.032 71.963 114.255 72.1854 114.53 72.1854ZM114.031 72.6825C114.031 72.9567 113.808 73.1791 113.532 73.1791C113.257 73.1791 113.033 72.9567 113.033 72.6825C113.033 72.4079 113.257 72.1854 113.532 72.1854C113.808 72.1854 114.031 72.4079 114.031 72.6825ZM112.535 72.1854C112.811 72.1854 113.034 71.963 113.034 71.6888C113.034 71.4142 112.811 71.1917 112.535 71.1917C112.259 71.1917 112.036 71.4142 112.036 71.6888C112.036 71.963 112.259 72.1854 112.535 72.1854ZM112.036 72.6825C112.036 72.9567 111.812 73.1791 111.537 73.1791C111.261 73.1791 111.038 72.9567 111.038 72.6825C111.038 72.4079 111.261 72.1854 111.537 72.1854C111.812 72.1854 112.036 72.4079 112.036 72.6825ZM112.535 74.1728C112.811 74.1728 113.034 73.9504 113.034 73.6762C113.034 73.4016 112.811 73.1791 112.535 73.1791C112.259 73.1791 112.036 73.4016 112.036 73.6762C112.036 73.9504 112.259 74.1728 112.535 74.1728ZM112.036 70.6951C112.036 70.9693 111.812 71.1917 111.537 71.1917C111.261 71.1917 111.038 70.9693 111.038 70.6951C111.038 70.4204 111.261 70.198 111.537 70.198C111.812 70.198 112.036 70.4204 112.036 70.6951ZM110.539 70.198C110.815 70.198 111.038 69.9756 111.038 69.7014C111.038 69.4271 110.815 69.2043 110.539 69.2043C110.264 69.2043 110.04 69.4271 110.04 69.7014C110.04 69.9756 110.264 70.198 110.539 70.198ZM111.038 71.6888C111.038 71.963 110.815 72.1854 110.539 72.1854C110.264 72.1854 110.04 71.963 110.04 71.6888C110.04 71.4142 110.264 71.1917 110.539 71.1917C110.815 71.1917 111.038 71.4142 111.038 71.6888ZM113.532 67.2169C113.808 67.2169 114.031 66.9945 114.031 66.7203C114.031 66.4456 113.808 66.2232 113.532 66.2232C113.257 66.2232 113.033 66.4456 113.033 66.7203C113.033 66.9945 113.257 67.2169 113.532 67.2169ZM103.057 74.6699C103.057 74.9441 102.833 75.1665 102.558 75.1665C102.282 75.1665 102.059 74.9441 102.059 74.6699C102.059 74.3953 102.282 74.1728 102.558 74.1728C102.833 74.1728 103.057 74.3953 103.057 74.6699ZM111.537 69.2043C111.812 69.2043 112.036 68.9819 112.036 68.7077C112.036 68.433 111.812 68.2106 111.537 68.2106C111.261 68.2106 111.038 68.433 111.038 68.7077C111.038 68.9819 111.261 69.2043 111.537 69.2043ZM116.027 64.7329C116.027 65.0071 115.803 65.2295 115.528 65.2295C115.252 65.2295 115.029 65.0071 115.029 64.7329C115.029 64.4586 115.252 64.2358 115.528 64.2358C115.803 64.2358 116.027 64.4586 116.027 64.7329ZM103.555 63.2425C103.831 63.2425 104.054 63.0201 104.054 62.7454C104.054 62.4712 103.831 62.2488 103.555 62.2488C103.28 62.2488 103.056 62.4712 103.056 62.7454C103.056 63.0201 103.28 63.2425 103.555 63.2425ZM105.052 63.7391C105.052 64.0138 104.829 64.2362 104.553 64.2362C104.278 64.2362 104.054 64.0138 104.054 63.7391C104.054 63.4649 104.278 63.2425 104.553 63.2425C104.829 63.2425 105.052 63.4649 105.052 63.7391ZM105.551 65.2295C105.827 65.2295 106.05 65.0071 106.05 64.7329C106.05 64.4586 105.827 64.2358 105.551 64.2358C105.275 64.2358 105.052 64.4586 105.052 64.7329C105.052 65.0071 105.275 65.2295 105.551 65.2295ZM108.045 64.7329C108.045 65.0071 107.822 65.2295 107.546 65.2295C107.27 65.2295 107.047 65.0071 107.047 64.7329C107.047 64.4586 107.27 64.2358 107.546 64.2358C107.822 64.2358 108.045 64.4586 108.045 64.7329ZM108.544 66.2232C108.819 66.2232 109.043 66.0008 109.043 65.7266C109.043 65.4523 108.819 65.2299 108.544 65.2299C108.268 65.2299 108.045 65.4523 108.045 65.7266C108.045 66.0008 108.268 66.2232 108.544 66.2232ZM108.045 66.7203C108.045 66.9945 107.822 67.2169 107.546 67.2169C107.27 67.2169 107.047 66.9945 107.047 66.7203C107.047 66.4456 107.27 66.2232 107.546 66.2232C107.822 66.2232 108.045 66.4456 108.045 66.7203ZM110.539 66.2232C110.815 66.2232 111.038 66.0008 111.038 65.7266C111.038 65.4523 110.815 65.2299 110.539 65.2299C110.264 65.2299 110.04 65.4523 110.04 65.7266C110.04 66.0008 110.264 66.2232 110.539 66.2232ZM110.041 66.7203C110.041 66.9945 109.817 67.2169 109.542 67.2169C109.266 67.2169 109.043 66.9945 109.043 66.7203C109.043 66.4456 109.266 66.2232 109.542 66.2232C109.817 66.2232 110.041 66.4456 110.041 66.7203ZM108.544 64.2362C108.819 64.2362 109.043 64.0138 109.043 63.7391C109.043 63.4649 108.819 63.2425 108.544 63.2425C108.268 63.2425 108.045 63.4649 108.045 63.7391C108.045 64.0138 108.268 64.2362 108.544 64.2362ZM110.041 62.7454C110.041 63.0201 109.817 63.2425 109.542 63.2425C109.266 63.2425 109.043 63.0201 109.043 62.7454C109.043 62.4712 109.266 62.2488 109.542 62.2488C109.817 62.2488 110.041 62.4712 110.041 62.7454ZM109.043 61.7521C109.043 62.0264 108.819 62.2488 108.544 62.2488C108.268 62.2488 108.045 62.0264 108.045 61.7521C108.045 61.4775 108.268 61.2551 108.544 61.2551C108.819 61.2551 109.043 61.4775 109.043 61.7521ZM113.532 62.2488C113.808 62.2488 114.031 62.0264 114.031 61.7521C114.031 61.4775 113.808 61.2551 113.532 61.2551C113.257 61.2551 113.033 61.4775 113.033 61.7521C113.033 62.0264 113.257 62.2488 113.532 62.2488ZM118.022 66.7203C118.022 66.9945 117.799 67.2169 117.523 67.2169C117.248 67.2169 117.024 66.9945 117.024 66.7203C117.024 66.4456 117.248 66.2232 117.523 66.2232C117.799 66.2232 118.022 66.4456 118.022 66.7203ZM123.509 66.2232C123.784 66.2232 124.008 66.0008 124.008 65.7266C124.008 65.4523 123.784 65.2299 123.509 65.2299C123.233 65.2299 123.01 65.4523 123.01 65.7266C123.01 66.0008 123.233 66.2232 123.509 66.2232ZM123.01 66.7203C123.01 66.9945 122.787 67.2169 122.512 67.2169C122.236 67.2169 122.013 66.9945 122.013 66.7203C122.013 66.4456 122.236 66.2232 122.512 66.2232C122.787 66.2232 123.01 66.4456 123.01 66.7203ZM123.509 68.2106C123.784 68.2106 124.008 67.9882 124.008 67.714C124.008 67.4393 123.784 67.2169 123.509 67.2169C123.233 67.2169 123.01 67.4393 123.01 67.714C123.01 67.9882 123.233 68.2106 123.509 68.2106ZM123.01 68.7077C123.01 68.9819 122.787 69.2043 122.512 69.2043C122.236 69.2043 122.013 68.9819 122.013 68.7077C122.013 68.433 122.236 68.2106 122.512 68.2106C122.787 68.2106 123.01 68.433 123.01 68.7077ZM124.507 67.2169C124.782 67.2169 125.006 66.9945 125.006 66.7203C125.006 66.4456 124.782 66.2232 124.507 66.2232C124.231 66.2232 124.008 66.4456 124.008 66.7203C124.008 66.9945 124.231 67.2169 124.507 67.2169ZM126.004 65.7266C126.004 66.0008 125.78 66.2232 125.505 66.2232C125.229 66.2232 125.006 66.0008 125.006 65.7266C125.006 65.4523 125.229 65.2299 125.505 65.2299C125.78 65.2299 126.004 65.4523 126.004 65.7266ZM122.512 65.2295C122.787 65.2295 123.01 65.0071 123.01 64.7329C123.01 64.4586 122.787 64.2358 122.512 64.2358C122.236 64.2358 122.013 64.4586 122.013 64.7329C122.013 65.0071 122.236 65.2295 122.512 65.2295ZM123.01 62.7454C123.01 63.0201 122.787 63.2425 122.512 63.2425C122.236 63.2425 122.013 63.0201 122.013 62.7454C122.013 62.4712 122.236 62.2488 122.512 62.2488C122.787 62.2488 123.01 62.4712 123.01 62.7454ZM123.509 64.2362C123.784 64.2362 124.008 64.0138 124.008 63.7391C124.008 63.4649 123.784 63.2425 123.509 63.2425C123.233 63.2425 123.01 63.4649 123.01 63.7391C123.01 64.0138 123.233 64.2362 123.509 64.2362ZM125.006 64.7329C125.006 65.0071 124.782 65.2295 124.507 65.2295C124.231 65.2295 124.008 65.0071 124.008 64.7329C124.008 64.4586 124.231 64.2358 124.507 64.2358C124.782 64.2358 125.006 64.4586 125.006 64.7329ZM125.505 64.2362C125.78 64.2362 126.004 64.0138 126.004 63.7391C126.004 63.4649 125.78 63.2425 125.505 63.2425C125.229 63.2425 125.006 63.4649 125.006 63.7391C125.006 64.0138 125.229 64.2362 125.505 64.2362ZM125.006 62.7454C125.006 63.0201 124.782 63.2425 124.507 63.2425C124.231 63.2425 124.008 63.0201 124.008 62.7454C124.008 62.4712 124.231 62.2488 124.507 62.2488C124.782 62.2488 125.006 62.4712 125.006 62.7454ZM123.509 62.2488C123.784 62.2488 124.008 62.0264 124.008 61.7521C124.008 61.4775 123.784 61.2551 123.509 61.2551C123.233 61.2551 123.01 61.4775 123.01 61.7521C123.01 62.0264 123.233 62.2488 123.509 62.2488ZM126.004 61.7521C126.004 62.0264 125.78 62.2488 125.505 62.2488C125.229 62.2488 125.006 62.0264 125.006 61.7521C125.006 61.4775 125.229 61.2551 125.505 61.2551C125.78 61.2551 126.004 61.4775 126.004 61.7521ZM124.507 61.2551C124.782 61.2551 125.006 61.0327 125.006 60.7584C125.006 60.4838 124.782 60.2614 124.507 60.2614C124.231 60.2614 124.008 60.4838 124.008 60.7584C124.008 61.0327 124.231 61.2551 124.507 61.2551ZM124.008 59.7647C124.008 60.039 123.784 60.2614 123.509 60.2614C123.233 60.2614 123.01 60.039 123.01 59.7647C123.01 59.4901 123.233 59.2677 123.509 59.2677C123.784 59.2677 124.008 59.4901 124.008 59.7647ZM125.505 60.2614C125.78 60.2614 126.004 60.039 126.004 59.7647C126.004 59.4901 125.78 59.2677 125.505 59.2677C125.229 59.2677 125.006 59.4901 125.006 59.7647C125.006 60.039 125.229 60.2614 125.505 60.2614ZM127.001 58.771C127.001 59.0453 126.778 59.2677 126.502 59.2677C126.227 59.2677 126.003 59.0453 126.003 58.771C126.003 58.4964 126.227 58.274 126.502 58.274C126.778 58.274 127.001 58.4964 127.001 58.771ZM125.505 58.274C125.78 58.274 126.004 58.0516 126.004 57.7773C126.004 57.5027 125.78 57.2803 125.505 57.2803C125.229 57.2803 125.006 57.5027 125.006 57.7773C125.006 58.0516 125.229 58.274 125.505 58.274ZM125.006 56.7836C125.006 57.0583 124.782 57.2807 124.507 57.2807C124.231 57.2807 124.008 57.0583 124.008 56.7836C124.008 56.5094 124.231 56.287 124.507 56.287C124.782 56.287 125.006 56.5094 125.006 56.7836ZM126.502 57.2807C126.778 57.2807 127.001 57.0583 127.001 56.7836C127.001 56.5094 126.778 56.287 126.502 56.287C126.227 56.287 126.003 56.5094 126.003 56.7836C126.003 57.0583 126.227 57.2807 126.502 57.2807ZM127.998 55.7899C127.998 56.0641 127.775 56.2866 127.5 56.2866C127.224 56.2866 127.001 56.0641 127.001 55.7899C127.001 55.5153 127.224 55.2929 127.5 55.2929C127.775 55.2929 127.998 55.5153 127.998 55.7899ZM126.502 55.2929C126.778 55.2929 127.001 55.0704 127.001 54.7962C127.001 54.5216 126.778 54.2992 126.502 54.2992C126.227 54.2992 126.003 54.5216 126.003 54.7962C126.003 55.0704 126.227 55.2929 126.502 55.2929ZM116.027 68.7077C116.027 68.9819 115.803 69.2043 115.528 69.2043C115.252 69.2043 115.029 68.9819 115.029 68.7077C115.029 68.433 115.252 68.2106 115.528 68.2106C115.803 68.2106 116.027 68.433 116.027 68.7077ZM114.53 66.2232C114.806 66.2232 115.029 66.0008 115.029 65.7266C115.029 65.4523 114.806 65.2299 114.53 65.2299C114.255 65.2299 114.032 65.4523 114.032 65.7266C114.032 66.0008 114.255 66.2232 114.53 66.2232ZM104.054 73.6762C104.054 73.9504 103.831 74.1728 103.555 74.1728C103.28 74.1728 103.056 73.9504 103.056 73.6762C103.056 73.4016 103.28 73.1791 103.555 73.1791C103.831 73.1791 104.054 73.4016 104.054 73.6762ZM104.553 73.1791C104.829 73.1791 105.052 72.9567 105.052 72.6825C105.052 72.4079 104.829 72.1854 104.553 72.1854C104.278 72.1854 104.054 72.4079 104.054 72.6825C104.054 72.9567 104.278 73.1791 104.553 73.1791ZM113.034 67.714C113.034 67.9882 112.811 68.2106 112.535 68.2106C112.259 68.2106 112.036 67.9882 112.036 67.714C112.036 67.4393 112.259 67.2169 112.535 67.2169C112.811 67.2169 113.034 67.4393 113.034 67.714ZM101.56 76.1602C101.836 76.1602 102.059 75.9378 102.059 75.6632C102.059 75.389 101.836 75.1665 101.56 75.1665C101.285 75.1665 101.061 75.389 101.061 75.6632C101.061 75.9378 101.285 76.1602 101.56 76.1602ZM117.024 63.7391C117.024 64.0138 116.801 64.2362 116.525 64.2362C116.25 64.2362 116.026 64.0138 116.026 63.7391C116.026 63.4649 116.25 63.2425 116.525 63.2425C116.801 63.2425 117.024 63.4649 117.024 63.7391ZM102.558 64.2362C102.833 64.2362 103.057 64.0138 103.057 63.7391C103.057 63.4649 102.833 63.2425 102.558 63.2425C102.282 63.2425 102.059 63.4649 102.059 63.7391C102.059 64.0138 102.282 64.2362 102.558 64.2362ZM113.034 59.7647C113.034 60.039 112.811 60.2614 112.535 60.2614C112.259 60.2614 112.036 60.039 112.036 59.7647C112.036 59.4901 112.259 59.2677 112.535 59.2677C112.811 59.2677 113.034 59.4901 113.034 59.7647ZM114.53 61.2551C114.806 61.2551 115.029 61.0327 115.029 60.7584C115.029 60.4838 114.806 60.2614 114.53 60.2614C114.255 60.2614 114.032 60.4838 114.032 60.7584C114.032 61.0327 114.255 61.2551 114.53 61.2551ZM117.024 65.7266C117.024 66.0008 116.801 66.2232 116.525 66.2232C116.25 66.2232 116.026 66.0008 116.026 65.7266C116.026 65.4523 116.25 65.2299 116.525 65.2299C116.801 65.2299 117.024 65.4523 117.024 65.7266ZM114.53 68.2106C114.806 68.2106 115.029 67.9882 115.029 67.714C115.029 67.4393 114.806 67.2169 114.53 67.2169C114.255 67.2169 114.032 67.4393 114.032 67.714C114.032 67.9882 114.255 68.2106 114.53 68.2106ZM104.054 75.6632C104.054 75.9378 103.831 76.1602 103.555 76.1602C103.28 76.1602 103.056 75.9378 103.056 75.6632C103.056 75.389 103.28 75.1665 103.555 75.1665C103.831 75.1665 104.054 75.389 104.054 75.6632ZM113.532 65.2295C113.808 65.2295 114.031 65.0071 114.031 64.7329C114.031 64.4586 113.808 64.2358 113.532 64.2358C113.257 64.2358 113.033 64.4586 113.033 64.7329C113.033 65.0071 113.257 65.2295 113.532 65.2295ZM110.041 64.7329C110.041 65.0071 109.817 65.2295 109.542 65.2295C109.266 65.2295 109.043 65.0071 109.043 64.7329C109.043 64.4586 109.266 64.2358 109.542 64.2358C109.817 64.2358 110.041 64.4586 110.041 64.7329ZM112.535 64.2362C112.811 64.2362 113.034 64.0138 113.034 63.7391C113.034 63.4649 112.811 63.2425 112.535 63.2425C112.259 63.2425 112.036 63.4649 112.036 63.7391C112.036 64.0138 112.259 64.2362 112.535 64.2362ZM112.036 66.7203C112.036 66.9945 111.812 67.2169 111.537 67.2169C111.261 67.2169 111.038 66.9945 111.038 66.7203C111.038 66.4456 111.261 66.2232 111.537 66.2232C111.812 66.2232 112.036 66.4456 112.036 66.7203ZM100.562 75.1665C100.838 75.1665 101.061 74.9441 101.061 74.6699C101.061 74.3953 100.838 74.1728 100.562 74.1728C100.287 74.1728 100.064 74.3953 100.064 74.6699C100.064 74.9441 100.287 75.1665 100.562 75.1665ZM100.064 75.6632C100.064 75.9378 99.8406 76.1602 99.5649 76.1602C99.2896 76.1602 99.0662 75.9378 99.0662 75.6632C99.0662 75.389 99.2896 75.1665 99.5649 75.1665C99.8406 75.1665 100.064 75.389 100.064 75.6632ZM98.5668 77.1535C98.8425 77.1535 99.0658 76.9311 99.0658 76.6569C99.0658 76.3823 98.8425 76.1598 98.5668 76.1598C98.2914 76.1598 98.0681 76.3823 98.0681 76.6569C98.0681 76.9311 98.2914 77.1535 98.5668 77.1535ZM98.0681 75.6632C98.0681 75.9378 97.8448 76.1602 97.5695 76.1602C97.2937 76.1602 97.0704 75.9378 97.0704 75.6632C97.0704 75.389 97.2937 75.1665 97.5695 75.1665C97.8448 75.1665 98.0681 75.389 98.0681 75.6632ZM96.5717 77.1535C96.8471 77.1535 97.0704 76.9311 97.0704 76.6569C97.0704 76.3823 96.8471 76.1598 96.5717 76.1598C96.296 76.1598 96.0727 76.3823 96.0727 76.6569C96.0727 76.9311 96.296 77.1535 96.5717 77.1535ZM96.0727 75.6632C96.0727 75.9378 95.8493 76.1602 95.574 76.1602C95.2987 76.1602 95.0754 75.9378 95.0754 75.6632C95.0754 75.389 95.2987 75.1665 95.574 75.1665C95.8493 75.1665 96.0727 75.389 96.0727 75.6632ZM94.5763 77.1535C94.8516 77.1535 95.075 76.9311 95.075 76.6569C95.075 76.3823 94.8516 76.1598 94.5763 76.1598C94.3006 76.1598 94.0772 76.3823 94.0772 76.6569C94.0772 76.9311 94.3006 77.1535 94.5763 77.1535ZM116.027 62.7454C116.027 63.0201 115.803 63.2425 115.528 63.2425C115.252 63.2425 115.029 63.0201 115.029 62.7454C115.029 62.4712 115.252 62.2488 115.528 62.2488C115.803 62.2488 116.027 62.4712 116.027 62.7454ZM116.525 62.2488C116.801 62.2488 117.024 62.0264 117.024 61.7521C117.024 61.4775 116.801 61.2551 116.525 61.2551C116.25 61.2551 116.026 61.4775 116.026 61.7521C116.026 62.0264 116.25 62.2488 116.525 62.2488ZM118.022 60.7584C118.022 61.0327 117.799 61.2551 117.523 61.2551C117.248 61.2551 117.024 61.0327 117.024 60.7584C117.024 60.4838 117.248 60.2614 117.523 60.2614C117.799 60.2614 118.022 60.4838 118.022 60.7584ZM116.525 60.2614C116.801 60.2614 117.024 60.039 117.024 59.7647C117.024 59.4901 116.801 59.2677 116.525 59.2677C116.25 59.2677 116.026 59.4901 116.026 59.7647C116.026 60.039 116.25 60.2614 116.525 60.2614ZM116.027 58.771C116.027 59.0453 115.803 59.2677 115.528 59.2677C115.252 59.2677 115.029 59.0453 115.029 58.771C115.029 58.4964 115.252 58.274 115.528 58.274C115.803 58.274 116.027 58.4964 116.027 58.771ZM114.53 58.274C114.806 58.274 115.029 58.0516 115.029 57.7773C115.029 57.5027 114.806 57.2803 114.53 57.2803C114.255 57.2803 114.032 57.5027 114.032 57.7773C114.032 58.0516 114.255 58.274 114.53 58.274ZM116.027 56.7836C116.027 57.0583 115.803 57.2807 115.528 57.2807C115.252 57.2807 115.029 57.0583 115.029 56.7836C115.029 56.5094 115.252 56.287 115.528 56.287C115.803 56.287 116.027 56.5094 116.027 56.7836ZM116.525 56.2866C116.801 56.2866 117.024 56.0641 117.024 55.7899C117.024 55.5153 116.801 55.2929 116.525 55.2929C116.25 55.2929 116.026 55.5153 116.026 55.7899C116.026 56.0641 116.25 56.2866 116.525 56.2866ZM116.027 54.7962C116.027 55.0704 115.803 55.2929 115.528 55.2929C115.252 55.2929 115.029 55.0704 115.029 54.7962C115.029 54.5216 115.252 54.2992 115.528 54.2992C115.803 54.2992 116.027 54.5216 116.027 54.7962ZM114.53 54.2996C114.806 54.2996 115.029 54.0767 115.029 53.8025C115.029 53.5283 114.806 53.3059 114.53 53.3059C114.255 53.3059 114.032 53.5283 114.032 53.8025C114.032 54.0767 114.255 54.2996 114.53 54.2996ZM116.027 52.8088C116.027 53.0834 115.803 53.3059 115.528 53.3059C115.252 53.3059 115.029 53.0834 115.029 52.8088C115.029 52.5346 115.252 52.3122 115.528 52.3122C115.803 52.3122 116.027 52.5346 116.027 52.8088ZM116.525 58.274C116.801 58.274 117.024 58.0516 117.024 57.7773C117.024 57.5027 116.801 57.2803 116.525 57.2803C116.25 57.2803 116.026 57.5027 116.026 57.7773C116.026 58.0516 116.25 58.274 116.525 58.274ZM118.022 58.771C118.022 59.0453 117.799 59.2677 117.523 59.2677C117.248 59.2677 117.024 59.0453 117.024 58.771C117.024 58.4964 117.248 58.274 117.523 58.274C117.799 58.274 118.022 58.4964 118.022 58.771ZM117.523 63.2425C117.799 63.2425 118.022 63.0201 118.022 62.7454C118.022 62.4712 117.799 62.2488 117.523 62.2488C117.248 62.2488 117.024 62.4712 117.024 62.7454C117.024 63.0201 117.248 63.2425 117.523 63.2425ZM119.019 63.7391C119.019 64.0138 118.796 64.2362 118.52 64.2362C118.245 64.2362 118.022 64.0138 118.022 63.7391C118.022 63.4649 118.245 63.2425 118.52 63.2425C118.796 63.2425 119.019 63.4649 119.019 63.7391ZM117.523 65.2295C117.799 65.2295 118.022 65.0071 118.022 64.7329C118.022 64.4586 117.799 64.2358 117.523 64.2358C117.248 64.2358 117.024 64.4586 117.024 64.7329C117.024 65.0071 117.248 65.2295 117.523 65.2295ZM101.061 62.7454C101.061 63.0201 100.838 63.2425 100.562 63.2425C100.287 63.2425 100.064 63.0201 100.064 62.7454C100.064 62.4712 100.287 62.2488 100.562 62.2488C100.838 62.2488 101.061 62.4712 101.061 62.7454ZM117.523 69.2043C117.799 69.2043 118.022 68.9819 118.022 68.7077C118.022 68.433 117.799 68.2106 117.523 68.2106C117.248 68.2106 117.024 68.433 117.024 68.7077C117.024 68.9819 117.248 69.2043 117.523 69.2043ZM119.019 69.7014C119.019 69.9756 118.796 70.198 118.52 70.198C118.245 70.198 118.022 69.9756 118.022 69.7014C118.022 69.4271 118.245 69.2043 118.52 69.2043C118.796 69.2043 119.019 69.4271 119.019 69.7014ZM117.523 71.1917C117.799 71.1917 118.022 70.9693 118.022 70.6951C118.022 70.4204 117.799 70.198 117.523 70.198C117.248 70.198 117.024 70.4204 117.024 70.6951C117.024 70.9693 117.248 71.1917 117.523 71.1917Z" fill="white"/>
<path fill-rule="evenodd" clip-rule="evenodd" d="M72.8837 108.063C75.8136 107.589 78.7434 106.96 81.654 106.171L66.1125 75.8804C65.3619 75.8688 64.2751 76.1888 62.9432 76.5814C57.8107 78.0943 49.0328 80.6819 41.7642 69.4878C34.6986 58.6068 41.532 43.4415 47.8291 31.3324C41.2309 39.5932 37.2884 50.0525 37.2884 61.4289C37.2884 63.7906 37.4583 66.1124 37.7865 68.3837C39.581 69.5661 40.8399 71.1195 41.7134 72.1979C42.277 72.8929 42.6801 73.3907 42.9639 73.4642C41.4018 73.3309 39.9795 73.0458 38.6279 72.7596C39.8997 78.0384 42.0403 82.9805 44.8912 87.4274C45.506 87.1319 46.205 86.9372 47.0023 86.8758C51.5132 86.5289 54.013 89.614 55.3662 91.2834C55.8193 91.8431 56.1442 92.2434 56.3724 92.3028C54.9905 92.1848 53.7445 91.919 52.5605 91.6668C50.8279 91.2979 49.2283 90.957 47.5312 91.1485C48.3157 92.1506 49.1389 93.1215 49.9987 94.0586C50.1096 94.1136 50.2184 94.1754 50.3252 94.244C52.0058 95.3269 53.2535 96.7871 54.1343 98.0627C59.4909 102.669 65.8687 106.13 72.8837 108.063ZM45.4286 94.3171C43.7774 94.9896 42.2326 96.0452 41.2716 96.7502C43.7181 96.3186 45.8845 96.5049 47.7783 96.9887C52.5339 102.039 58.29 106.143 64.7319 108.987C56.4127 109.53 48.2411 108.848 40.6661 107.057C40.6589 104.13 40.7806 101.579 40.8741 99.6213L40.8745 99.6157L40.8907 99.2724C40.8971 99.1375 40.9036 99.0054 40.9096 98.8765L39.6299 99.3314C39.3033 101.128 38.9482 103.625 38.6384 106.548C36.6082 106.007 34.625 105.384 32.698 104.683C33.5523 102.249 35.0705 99.6329 38.4337 97.7587C36.0209 97.8804 30.8425 98.3975 29.8321 101.526C29.6276 102.16 29.5228 102.796 29.4909 103.422C28.7834 103.122 28.0848 102.81 27.3956 102.488C28.0654 101.407 28.9823 100.332 30.305 99.4053C29.1419 99.6149 26.8018 100.156 25.658 101.642C25.0361 101.327 24.4227 101.002 23.818 100.669L23.807 100.539C27.2397 98.0318 31.7695 95.4329 37.8359 95.9801C35.3605 94.289 29.8002 90.9454 25.7878 93.6623C24.9306 94.2428 24.1779 94.9117 23.5162 95.626C23.4427 93.5442 23.4327 91.5689 23.457 89.7397C29.5735 88.9676 34.1979 90.8229 37.8887 94.7262C37.5883 92.9657 33.852 87.1199 30.8973 87.0223C28.003 86.9268 25.2123 88.5773 23.8622 89.3755C23.7084 89.4666 23.5733 89.5461 23.4588 89.6112C23.4977 86.8858 23.612 84.4897 23.7042 82.5585C23.7196 82.2369 23.7343 81.9281 23.748 81.633L22.158 82.198C21.4972 85.8331 20.7427 91.7728 20.2904 98.5517C17.4617 96.7076 14.8687 94.6391 12.5595 92.359C13.4502 88.6283 14.7906 83.5237 20.6729 80.2455C17.6748 80.3964 11.2401 81.0396 9.98464 84.9273C9.52106 86.3627 9.46958 87.8133 9.62873 89.1651C8.7401 88.0931 7.90911 86.9818 7.1398 85.8327C7.95434 84.5873 9.04586 83.3595 10.572 82.2895C9.45728 82.4902 7.47253 82.9363 5.9708 83.977C5.59731 83.3454 5.24184 82.7034 4.90495 82.0506C8.82495 79.5601 13.7323 77.476 19.9306 78.0352C16.8547 75.9338 9.94546 71.7787 4.95977 75.1549C4.14652 75.7058 3.40902 76.3208 2.73976 76.9757C-1.18486 65.4965 0.235358 51.355 9.5808 35.2269C20.2889 17.9044 37.5101 12.2021 47.5361 11.7686C47.3047 12.9874 46.8262 14.4445 45.4386 15.9017C45.1407 14.2925 44.5078 15.0978 43.4448 16.4496C42.6188 17.5003 41.5336 18.8809 40.1442 19.7146C40.1442 17.3316 38.0264 15.9015 37.497 18.7614C36.9675 21.6213 33.7907 25.0702 33.7907 24.0044C33.7907 23.6963 33.8153 23.3883 33.838 23.104C33.9206 22.069 33.9779 21.35 32.7318 22.0978C31.7878 22.6644 30.8437 24.2413 30.3443 25.2272C30.8591 23.49 31.3572 19.5726 29.5551 18.7614C27.4372 17.8081 27.4372 21.1446 27.9667 23.5278C28.3902 25.4344 26.7313 28.4532 25.8489 29.7243C26.2018 29.0887 26.696 27.627 25.8489 26.8642C25.196 26.2764 24.9456 28.0439 24.7256 29.5977C24.5887 30.5641 24.4635 31.4478 24.2605 31.6306C23.9333 31.9252 23.8082 31.1275 23.6355 30.025C23.5288 29.3436 23.4038 28.5459 23.2016 27.8177C22.6721 25.9111 20.5543 28.2943 21.6132 29.7243C22.6721 31.1542 21.6132 33.5374 20.5543 34.4907C20.0626 34.9333 19.685 35.7871 19.3156 36.6224C18.8895 37.586 18.4742 38.5251 17.907 38.7805C17.3775 39.0187 17.3775 39.972 17.3775 40.8655C17.3775 41.7592 17.3775 42.5935 16.8479 42.5935C16.4727 42.5935 16.1641 42.4141 15.8748 42.2459C15.3474 41.9391 14.8844 41.6701 14.2007 42.5935C13.3535 43.7374 15.6125 51.8665 16.8479 54.0908C18.3625 56.8178 19.32 58.217 19.8994 58.7076C21.1583 60.6918 22.7335 62.1095 24.5159 63.0153C27.2732 64.4169 30.4857 64.5719 33.7116 63.7544C33.7574 64.7899 33.8335 65.8173 33.9392 66.8363C33.1336 66.6966 32.2625 66.6488 31.3209 66.7211C25.5578 67.1643 23.939 73.2089 22.9412 76.9343L22.9407 76.9363C22.9022 77.0801 22.8646 77.2206 22.8277 77.3571C27.7374 72.3902 31.2347 71.6623 34.7505 72.0505C35.035 73.4156 35.3732 74.7606 35.7628 76.084C35.6598 76.0137 35.5554 75.9442 35.4497 75.8764C32.0069 73.6581 26.617 77.2174 24.1999 78.9904C29.8843 77.9875 34.3514 79.6689 37.6643 81.4339C38.9184 84.4275 40.4456 87.2797 42.2145 89.9593C41.1942 91.6018 40.6633 93.5852 40.2588 95.0952L40.2586 95.0956C40.2275 95.2117 40.1972 95.3253 40.1674 95.4353C41.5417 94.0449 42.7785 93.0677 43.9261 92.3968C44.4123 93.0488 44.9134 93.6892 45.4286 94.3171ZM33.688 63.1385C33.6696 62.5708 33.6603 62.0011 33.6603 61.4289C33.6603 44.9925 41.318 30.3374 53.2736 20.8095C54.0875 19.0947 54.7273 17.5615 55.1046 16.2549C52.3324 16.8909 50.3018 17.9845 50.7336 18.7614C51.2629 19.7146 48.0863 20.668 45.4386 20.668C42.7914 20.668 40.6738 22.5745 42.2621 23.0512C43.8503 23.5278 38.0264 24.9578 35.9086 25.4344C33.7907 25.911 31.6729 27.8175 33.7907 28.7709C34.8656 29.2548 33.8947 29.493 32.4009 29.8595C30.9515 30.2152 29.0096 30.6917 27.9667 31.6306C25.8489 33.5373 26.3783 34.9672 27.9667 35.9205C28.9752 36.5257 26.9956 37.3231 25.1447 38.0687H25.1447C24.0804 38.4974 23.0587 38.9089 22.6721 39.257C21.6132 40.2103 20.5543 43.0701 21.6132 44.4999C22.6721 45.93 22.1426 46.4066 20.0248 47.8367C19.3986 48.2595 19.8139 51.0471 20.2121 53.7202C20.5327 55.8722 20.8422 57.9496 20.5883 58.6586C21.7643 60.418 23.1988 61.6698 24.7907 62.4789C27.4234 63.8171 30.5283 63.9652 33.688 63.1385ZM11.3096 66.903C14.981 67.0238 19.6238 74.2881 19.9971 76.4758C15.3224 71.5322 9.44261 69.232 1.62268 70.3386C1.77799 70.294 2.10467 70.1005 2.56775 69.8266C4.24533 68.8349 7.71307 66.7841 11.3096 66.903ZM21.7333 76.3076C22.6413 74.1524 22.8104 67.2611 21.2995 64.3454C19.7681 61.3908 14.5189 60.318 13.8116 60.1819C16.1316 61.9272 20.6229 69.7118 21.7333 76.3076ZM39.2873 94.5897C40.018 92.8553 40.1541 87.3094 38.9382 84.9631C37.7057 82.585 33.4813 81.7218 32.9122 81.6122C34.7793 83.017 38.3937 89.2816 39.2873 94.5897ZM27.2946 45.6497L27.2947 45.6489L27.2948 45.6485C27.2951 45.6461 27.2962 45.6389 27.2985 45.6256C27.3165 45.9998 27.3523 46.3793 27.4269 46.692C27.4652 46.8526 27.5165 47.008 27.5884 47.1409C27.6594 47.2718 27.7635 47.4043 27.9186 47.4814C28.0679 47.556 28.2496 47.4958 28.3242 47.3469C28.3989 47.1983 28.3384 47.0172 28.189 46.943C28.1863 46.9414 28.1589 46.9257 28.1205 46.8546C28.083 46.7856 28.0468 46.6856 28.0152 46.5531C27.952 46.2877 27.9182 45.9424 27.9012 45.5694C27.8844 45.2021 27.8844 44.8235 27.8844 44.4898V44.481V44.4673C27.8844 44.1469 27.8844 43.8506 27.8642 43.67C27.8584 43.6178 27.8487 43.5563 27.8278 43.5001C27.8176 43.4724 27.7975 43.4263 27.7581 43.3817C27.7147 43.3327 27.635 43.2737 27.5213 43.2721C27.417 43.2705 27.3436 43.3186 27.3084 43.3476C27.2717 43.3777 27.247 43.4106 27.2324 43.4319C27.2028 43.4752 27.1802 43.5242 27.1635 43.5648C27.0969 43.7254 27.0248 43.9972 26.9603 44.2702C26.8296 44.8227 26.7035 45.4956 26.6937 45.5823C26.3971 48.1992 26.8946 51.1615 28.5272 53.3292C28.6274 53.4625 28.8169 53.4894 28.9505 53.3894C29.084 53.2898 29.1111 53.1011 29.0109 52.9678C27.4961 50.9563 27.0098 48.1615 27.2946 45.6497C27.2946 45.6497 27.2946 45.6497 27.2946 45.6497ZM42.4076 31.9197C42.4604 32.0774 42.3745 32.248 42.2161 32.3006C42.0758 32.3472 41.9283 32.4609 41.7731 32.6598C41.6191 32.8573 41.4744 33.1171 41.3333 33.4197C41.1922 33.7212 41.0608 34.0522 40.9285 34.3891L40.9027 34.4545C40.7798 34.7667 40.6556 35.083 40.5262 35.3692C40.3884 35.6736 40.2364 35.9623 40.0607 36.1872C39.8873 36.4093 39.661 36.6071 39.3654 36.6578C39.0599 36.7102 38.7642 36.5923 38.4869 36.3653C38.212 36.1403 37.9241 35.7846 37.6125 35.2878C37.507 35.1199 37.4194 35.0004 37.347 34.9187C37.3053 34.8716 37.273 34.8419 37.2499 34.8238L37.2461 34.8292C37.1766 34.9286 37.1044 35.106 37.0075 35.3711C36.9941 35.4078 36.9803 35.4458 36.9662 35.4848C36.8845 35.7105 36.79 35.9712 36.6744 36.2277C36.6338 36.3178 36.5881 36.4361 36.5339 36.5765L36.5335 36.5774C36.5036 36.6548 36.4711 36.7388 36.4355 36.8285C36.3399 37.069 36.2256 37.3394 36.0971 37.5599C36.0328 37.6701 35.959 37.7787 35.8744 37.8675C35.7927 37.9535 35.6781 38.0451 35.5292 38.078C35.3628 38.1147 35.2054 38.0671 35.0776 37.9666C34.9605 37.8746 34.8682 37.7397 34.7904 37.5847C34.7638 37.5318 34.7302 37.4598 34.6904 37.3747L34.6903 37.3745C34.58 37.1385 34.4223 36.8011 34.2357 36.4856C34.1098 36.2726 33.9843 36.0945 33.8706 35.9818C33.8032 35.915 33.7631 35.893 33.7455 35.8857C33.7271 35.9012 33.679 35.9509 33.6202 36.0927C33.5491 36.2644 33.4928 36.4982 33.449 36.7576C33.4058 37.0138 33.3772 37.2798 33.3561 37.5096C33.3487 37.5908 33.342 37.6704 33.3358 37.7437L33.3357 37.7441C33.3252 37.869 33.3162 37.9759 33.3076 38.0424C32.8829 41.3425 32.2661 44.8339 30.205 47.6279C30.1061 47.762 29.9169 47.7909 29.7823 47.6926C29.6477 47.5938 29.6188 47.4055 29.7177 47.2714C31.6769 44.6155 32.2828 41.2678 32.7079 37.9658C32.7149 37.9111 32.7219 37.8277 32.7311 37.7176C32.7375 37.6423 32.7448 37.5545 32.754 37.4548C32.7755 37.2195 32.8058 36.9361 32.8527 36.6578C32.8991 36.3828 32.9643 36.0969 33.0612 35.8631C33.1491 35.6508 33.3033 35.3811 33.587 35.3004C33.891 35.2139 34.146 35.4051 34.2973 35.555C34.4661 35.7224 34.6226 35.9532 34.7568 36.18C34.9608 36.5251 35.1451 36.9196 35.254 37.1528C35.2873 37.2241 35.3136 37.2803 35.3312 37.3154C35.3695 37.3916 35.4014 37.438 35.4239 37.465L35.4299 37.4591L35.4355 37.4533C35.4752 37.4116 35.522 37.3469 35.5741 37.2576C35.6782 37.079 35.7787 36.8449 35.8732 36.607C35.9026 36.5332 35.9319 36.4574 35.9606 36.3832C36.0195 36.2309 36.0756 36.0859 36.1227 35.9812C36.2281 35.7472 36.3139 35.5106 36.396 35.2843V35.2843L36.3968 35.2821C36.411 35.2427 36.4252 35.2037 36.4393 35.1651C36.5291 34.9195 36.6266 34.6615 36.7496 34.4853C36.8128 34.395 36.904 34.2937 37.0356 34.2384C37.182 34.1768 37.3333 34.1905 37.468 34.2531C37.5913 34.3104 37.7009 34.4077 37.8006 34.5204C37.9029 34.6359 38.0102 34.7854 38.1252 34.9687C38.4224 35.4423 38.6693 35.7351 38.8708 35.9C39.07 36.0631 39.1925 36.0764 39.2627 36.0643C39.3429 36.0506 39.45 35.9883 39.5834 35.8175C39.7146 35.6495 39.8431 35.4125 39.9748 35.1216C40.0979 34.8499 40.2168 34.5472 40.3412 34.2309L40.3654 34.1694C40.4972 33.8344 40.6351 33.4867 40.7846 33.1659C40.9342 32.8461 41.1011 32.5397 41.2954 32.2903C41.4893 32.0421 41.7271 31.8281 42.025 31.7293C42.1835 31.6767 42.3548 31.7619 42.4076 31.9197ZM30.73 38.2681C30.7739 38.1077 30.6789 37.9421 30.5179 37.8984C30.3567 37.8546 30.1905 37.9492 30.1466 38.1097C29.7966 39.388 29.4138 40.6435 28.9619 41.8857C28.9051 42.0419 28.9862 42.2145 29.1432 42.2711C29.3002 42.3282 29.4736 42.2471 29.5305 42.0909C29.9895 40.829 30.377 39.5571 30.73 38.2681ZM35.7566 40.7463C35.9186 40.7864 36.0171 40.9498 35.9766 41.1112C35.9603 41.1763 35.9442 41.2409 35.9282 41.3051L35.8855 41.4762C35.5879 42.6718 35.314 43.7723 34.7661 44.9632C34.6965 45.1141 34.517 45.1808 34.3653 45.1113C34.2134 45.0419 34.1468 44.8632 34.2164 44.7122C34.7396 43.5752 35.0004 42.5281 35.2999 41.326L35.3003 41.3244C35.3297 41.2064 35.3595 41.0867 35.39 40.9651C35.4305 40.8041 35.5947 40.7057 35.7566 40.7463Z" fill="white"/>
</g>
<defs>
<clipPath id="clip0_22_1055">
<rect width="181" height="161" fill="white"/>
</clipPath>
</defs>
</svg>
