<svg width="172" height="83" viewBox="0 0 172 83" fill="none" xmlns="http://www.w3.org/2000/svg">
<g id="Group 20">
<circle id="Ellipse 1" cx="36.6206" cy="36.6206" r="36.6206" fill="#FF9900"/>
<circle id="Ellipse 2" cx="59.5982" cy="59.5982" r="22.9776" fill="#4788AC"/>
<g id="LOGO">
<path d="M103.399 54.8189V51.0506H104.548V40.7106H103.399V36.9423H113.096V40.7106H110.982V51.0506H113.05V48.9366H117.623V54.8189H103.399Z" fill="black"/>
<path d="M127.051 55.1406C124.247 55.1406 122.08 54.4053 120.548 52.9347C119.032 51.4642 118.273 49.1128 118.273 45.8806C118.273 42.6484 119.032 40.297 120.548 38.8265C122.08 37.3559 124.247 36.6206 127.051 36.6206C129.854 36.6206 132.014 37.3559 133.53 38.8265C135.062 40.297 135.828 42.6484 135.828 45.8806C135.828 49.1128 135.062 51.4642 133.53 52.9347C132.014 54.4053 129.854 55.1406 127.051 55.1406ZM127.051 51.0506C127.572 51.0506 127.962 50.9127 128.223 50.637C128.483 50.3612 128.613 49.9323 128.613 49.3502V42.411C128.613 41.8289 128.483 41.4 128.223 41.1242C127.962 40.8485 127.572 40.7106 127.051 40.7106C126.53 40.7106 126.139 40.8485 125.879 41.1242C125.618 41.4 125.488 41.8289 125.488 42.411V49.3502C125.488 49.9476 125.618 50.3842 125.879 50.6599C126.139 50.9204 126.53 51.0506 127.051 51.0506Z" fill="black"/>
<path d="M153.934 49.0745H152.786V53.67C152.112 54.053 151.123 54.3976 149.821 54.704C148.535 54.9951 147.141 55.1406 145.639 55.1406C142.775 55.1406 140.531 54.39 138.907 52.8888C137.283 51.3722 136.471 49.0362 136.471 45.8806C136.471 42.6484 137.276 40.297 138.884 38.8265C140.508 37.3559 142.821 36.6206 145.823 36.6206C147.279 36.6206 148.642 36.7738 149.913 37.0802C151.185 37.3865 152.142 37.7312 152.786 38.1142V43.6058H147.041V42.5259C147.041 41.8825 146.903 41.4229 146.628 41.1472C146.367 40.8562 145.946 40.7106 145.364 40.7106C144.782 40.7106 144.353 40.8562 144.077 41.1472C143.817 41.4229 143.686 41.8825 143.686 42.5259V49.2353C143.686 49.8787 143.817 50.3459 144.077 50.637C144.353 50.9127 144.782 51.0506 145.364 51.0506C145.946 51.0506 146.367 50.9127 146.628 50.637C146.903 50.3459 147.041 49.8787 147.041 49.2353V49.0745H145.8V45.6508H153.934V49.0745Z" fill="black"/>
<path d="M163.223 55.1406C160.419 55.1406 158.252 54.4053 156.72 52.9347C155.203 51.4642 154.445 49.1128 154.445 45.8806C154.445 42.6484 155.203 40.297 156.72 38.8265C158.252 37.3559 160.419 36.6206 163.223 36.6206C166.026 36.6206 168.186 37.3559 169.702 38.8265C171.234 40.297 172 42.6484 172 45.8806C172 49.1128 171.234 51.4642 169.702 52.9347C168.186 54.4053 166.026 55.1406 163.223 55.1406ZM163.223 51.0506C163.743 51.0506 164.134 50.9127 164.394 50.637C164.655 50.3612 164.785 49.9323 164.785 49.3502V42.411C164.785 41.8289 164.655 41.4 164.394 41.1242C164.134 40.8485 163.743 40.7106 163.223 40.7106C162.702 40.7106 162.311 40.8485 162.051 41.1242C161.79 41.4 161.66 41.8289 161.66 42.411V49.3502C161.66 49.9476 161.79 50.3842 162.051 50.6599C162.311 50.9204 162.702 51.0506 163.223 51.0506Z" fill="black"/>
</g>
</g>
</svg>
