<svg width="161" height="80" viewBox="0 0 161 80" fill="none" xmlns="http://www.w3.org/2000/svg">
<g id="Group 21">
<g id="Group 18">
<g id="LOGO">
<path d="M92.3994 54.8189V51.0506H93.5483V40.7106H92.3994V36.9423H102.096V40.7106H99.982V51.0506H102.05V48.9366H106.623V54.8189H92.3994Z" fill="black"/>
<path d="M116.051 55.1406C113.247 55.1406 111.08 54.4053 109.548 52.9347C108.032 51.4642 107.273 49.1128 107.273 45.8806C107.273 42.6484 108.032 40.297 109.548 38.8265C111.08 37.3559 113.247 36.6206 116.051 36.6206C118.854 36.6206 121.014 37.3559 122.53 38.8265C124.062 40.297 124.828 42.6484 124.828 45.8806C124.828 49.1128 124.062 51.4642 122.53 52.9347C121.014 54.4053 118.854 55.1406 116.051 55.1406ZM116.051 51.0506C116.572 51.0506 116.962 50.9127 117.223 50.637C117.483 50.3612 117.613 49.9323 117.613 49.3502V42.411C117.613 41.8289 117.483 41.4 117.223 41.1242C116.962 40.8485 116.572 40.7106 116.051 40.7106C115.53 40.7106 115.139 40.8485 114.879 41.1242C114.618 41.4 114.488 41.8289 114.488 42.411V49.3502C114.488 49.9476 114.618 50.3842 114.879 50.6599C115.139 50.9204 115.53 51.0506 116.051 51.0506Z" fill="black"/>
<path d="M142.934 49.0745H141.786V53.67C141.112 54.053 140.123 54.3976 138.821 54.704C137.535 54.9951 136.141 55.1406 134.639 55.1406C131.775 55.1406 129.531 54.39 127.907 52.8888C126.283 51.3722 125.471 49.0362 125.471 45.8806C125.471 42.6484 126.276 40.297 127.884 38.8265C129.508 37.3559 131.821 36.6206 134.823 36.6206C136.279 36.6206 137.642 36.7738 138.913 37.0802C140.185 37.3865 141.142 37.7312 141.786 38.1142V43.6058H136.041V42.5259C136.041 41.8825 135.903 41.4229 135.628 41.1472C135.367 40.8562 134.946 40.7106 134.364 40.7106C133.782 40.7106 133.353 40.8562 133.077 41.1472C132.817 41.4229 132.686 41.8825 132.686 42.5259V49.2353C132.686 49.8787 132.817 50.3459 133.077 50.637C133.353 50.9127 133.782 51.0506 134.364 51.0506C134.946 51.0506 135.367 50.9127 135.628 50.637C135.903 50.3459 136.041 49.8787 136.041 49.2353V49.0745H134.8V45.6508H142.934V49.0745Z" fill="black"/>
<path d="M152.223 55.1406C149.419 55.1406 147.252 54.4053 145.72 52.9347C144.203 51.4642 143.445 49.1128 143.445 45.8806C143.445 42.6484 144.203 40.297 145.72 38.8265C147.252 37.3559 149.419 36.6206 152.223 36.6206C155.026 36.6206 157.186 37.3559 158.702 38.8265C160.234 40.297 161 42.6484 161 45.8806C161 49.1128 160.234 51.4642 158.702 52.9347C157.186 54.4053 155.026 55.1406 152.223 55.1406ZM152.223 51.0506C152.743 51.0506 153.134 50.9127 153.394 50.637C153.655 50.3612 153.785 49.9323 153.785 49.3502V42.411C153.785 41.8289 153.655 41.4 153.394 41.1242C153.134 40.8485 152.743 40.7106 152.223 40.7106C151.702 40.7106 151.311 40.8485 151.051 41.1242C150.79 41.4 150.66 41.8289 150.66 42.411V49.3502C150.66 49.9476 150.79 50.3842 151.051 50.6599C151.311 50.9204 151.702 51.0506 152.223 51.0506Z" fill="black"/>
</g>
</g>
<path id="Star 1" d="M35.5 0L43.4702 27.6393H69.2625L48.3961 44.7214L56.3664 72.3607L35.5 55.2786L14.6336 72.3607L22.6039 44.7214L1.7375 27.6393H27.5298L35.5 0Z" fill="#C4C4C4"/>
</g>
</svg>
